<svg width="1920" height="872" viewBox="0 0 1920 872" fill="none" xmlns="http://www.w3.org/2000/svg">
<path d="M-131.469 81.4248L-66.0358 39.6882C-47.2099 27.6801 -23.1286 27.6802 -4.30269 39.6882L61.1305 81.4248C77.6574 91.9665 87.6615 110.214 87.6615 129.816V208.651C87.6615 228.254 77.6574 246.501 61.1305 257.042L-4.3027 298.779C-23.1286 310.787 -47.2099 310.787 -66.0358 298.779L-131.469 257.042C-147.996 246.501 -158 228.254 -158 208.651V129.816C-158 110.214 -147.996 91.9665 -131.469 81.4248Z" stroke="white" stroke-opacity="0.27" stroke-width="0.66395"/>
<path d="M53.6191 -6.57763L102.006 -37.441C115.927 -46.3207 133.735 -46.3207 147.656 -37.441L196.042 -6.57763C208.264 1.21772 215.662 14.7111 215.662 29.2069V87.5034C215.662 101.999 208.264 115.493 196.042 123.288L147.656 154.151C133.735 163.031 115.927 163.031 102.006 154.151L53.6191 123.288C41.3978 115.493 34 101.999 34 87.5034V29.2069C34 14.7111 41.3979 1.21772 53.6191 -6.57763Z" stroke="white" stroke-opacity="0.27" stroke-width="0.490977"/>
<path d="M398.619 191.422L447.006 160.559C460.927 151.679 478.735 151.679 492.656 160.559L541.042 191.422C553.264 199.218 560.662 212.711 560.662 227.207V285.503C560.662 299.999 553.264 313.493 541.042 321.288L492.656 352.151C478.735 361.031 460.927 361.031 447.006 352.151L398.619 321.288C386.398 313.493 379 299.999 379 285.503V227.207C379 212.711 386.398 199.218 398.619 191.422Z" stroke="white" stroke-opacity="0.27" stroke-width="0.490977"/>
<path d="M1788.62 722.422L1837.01 691.559C1850.93 682.679 1868.73 682.679 1882.66 691.559L1931.04 722.422C1943.26 730.218 1950.66 743.711 1950.66 758.207V816.503C1950.66 830.999 1943.26 844.493 1931.04 852.288L1882.66 883.151C1868.73 892.031 1850.93 892.031 1837.01 883.151L1788.62 852.288C1776.4 844.493 1769 830.999 1769 816.503V758.207C1769 743.711 1776.4 730.218 1788.62 722.422Z" stroke="white" stroke-opacity="0.27" stroke-width="0.490977"/>
<path d="M822.633 65.8688L994.633 -39.0386C1015.74 -51.9102 1042.26 -51.9102 1063.37 -39.0386L1235.37 65.8688C1255.01 77.8517 1267 99.2026 1267 122.215V310.785C1267 333.797 1255.01 355.148 1235.37 367.131L1063.37 472.039C1042.26 484.91 1015.74 484.91 994.633 472.039L822.633 367.131C802.986 355.148 791 333.797 791 310.785V122.215C791 99.2026 802.986 77.8517 822.633 65.8688Z" stroke="white" stroke-opacity="0.06" stroke-width="1.38378"/>
<path d="M246.633 635.869L418.633 530.961C439.736 518.09 466.264 518.09 487.367 530.961L659.367 635.869C679.014 647.852 691 669.203 691 692.215V880.785C691 903.797 679.014 925.148 659.367 937.131L487.367 1042.04C466.264 1054.91 439.736 1054.91 418.633 1042.04L246.633 937.131C226.986 925.148 215 903.797 215 880.785V692.215C215 669.203 226.986 647.852 246.633 635.869Z" stroke="white" stroke-opacity="0.27" stroke-width="1.38378"/>
<path d="M728.799 -28.7832L859.605 -118.52C876.715 -130.258 899.284 -130.259 916.395 -118.52L1047.2 -28.7832C1060.85 -19.4229 1069 -3.93967 1069 12.6066V184.427C1069 200.973 1060.85 216.457 1047.2 225.817L916.395 315.554C899.285 327.292 876.716 327.292 859.605 315.554L728.799 225.817C715.155 216.457 707 200.973 707 184.427V12.6065C707 -3.93968 715.155 -19.4229 728.799 -28.7832Z" stroke="white" stroke-opacity="0.06" stroke-width="1.05237"/>
<path d="M55.7987 499.217L186.605 409.48C203.715 397.742 226.284 397.741 243.395 409.48L374.201 499.217C387.845 508.577 396 524.06 396 540.607V712.427C396 728.973 387.845 744.457 374.201 753.817L243.395 843.554C226.285 855.292 203.716 855.292 186.605 843.554L55.7987 753.817C42.1545 744.457 34 728.973 34 712.427V540.607C34 524.06 42.1545 508.577 55.7987 499.217Z" stroke="white" stroke-opacity="0.27" stroke-width="1.05237"/>
<path d="M1735.81 40.9019L1862.81 -40.1051C1881.83 -52.2392 1906.17 -52.2392 1925.19 -40.1051L2052.19 40.9019C2068.89 51.5542 2079 69.9929 2079 89.8013V239.731C2079 259.54 2068.89 277.978 2052.19 288.631L1925.19 369.638C1906.17 381.772 1881.83 381.772 1862.81 369.638L1735.81 288.631C1719.11 277.978 1709 259.54 1709 239.731V89.8013C1709 69.9929 1719.11 51.5542 1735.81 40.9019Z" stroke="white" stroke-opacity="0.27"/>
<path d="M1622.6 184.78L1703.94 128.667C1720.23 117.43 1741.77 117.429 1758.06 128.667L1839.4 184.78C1852.3 193.676 1860 208.342 1860 224.008V334.992C1860 350.658 1852.3 365.324 1839.4 374.22L1758.06 430.333C1741.77 441.57 1720.23 441.57 1703.94 430.333L1622.6 374.22C1609.7 365.324 1602 350.658 1602 334.992V224.008C1602 208.342 1609.7 193.676 1622.6 184.78Z" stroke="white" stroke-opacity="0.27" stroke-width="0.821656"/>
<path d="M1281.94 603.625L1363.28 551.484C1378.96 541.438 1399.04 541.438 1414.72 551.484L1496.06 603.625C1509.73 612.388 1518 627.508 1518 643.746V741.254C1518 757.492 1509.73 772.612 1496.06 781.375L1414.72 833.516C1399.04 843.562 1378.96 843.562 1363.28 833.516L1281.94 781.375C1268.27 772.612 1260 757.492 1260 741.254V643.746C1260 627.508 1268.27 612.388 1281.94 603.625Z" stroke="white" stroke-opacity="0.27" stroke-width="0.821656"/>
<path d="M1125 684.76L1206.35 623.557C1223.32 610.791 1246.68 610.791 1263.65 623.557L1345 684.76C1356.96 693.763 1364 707.866 1364 722.841V850.905C1364 865.879 1356.96 879.983 1345 888.986L1263.65 950.188C1246.68 962.954 1223.32 962.954 1206.35 950.188L1125 888.986C1113.04 879.983 1106 865.879 1106 850.905V722.841C1106 707.866 1113.04 693.763 1125 684.76Z" stroke="white" stroke-opacity="0.27" stroke-width="0.821656"/>
</svg>
