<svg width="158" height="156" viewBox="0 0 158 156" fill="none" xmlns="http://www.w3.org/2000/svg">
<path d="M12.8053 155.773V91.0148H38.7817V144.431L12.8053 155.773Z" fill="white"/>
<path d="M38.7817 60.648H3.29279C3.04888 60.648 2.34154 60.7943 1.46346 61.3797C0.585384 61.9651 0.121955 63.0871 0 63.5749V84.7951C0 86.5512 1.70737 87.2342 2.56106 87.3561H38.7817L51.2211 73.8191L38.7817 60.648Z" fill="white"/>
<path d="M38.7817 56.9893H12.8053V12.3538C12.8053 10.8903 13.4638 7.378 17.5615 3.573C21.6592 -0.232 27.6838 -0.329562 30.0009 0.280213L82.3197 22.2321V126.504L65.124 133.089V44.184L38.7817 38.3302V56.9893Z" fill="white"/>
<path d="M115.248 39.7936V26.2566C115.369 25.7688 115.833 24.6468 116.711 24.0614C117.589 23.4761 118.54 23.3297 118.906 23.3297H124.76C125.126 23.3297 126.077 23.4761 126.955 24.0614C127.833 24.6468 128.541 25.7688 128.785 26.2566V39.7936L121.833 42.3547L115.248 39.7936Z" fill="white"/>
<path fill-rule="evenodd" clip-rule="evenodd" d="M86.71 124.309V24.0615L111.955 33.9398V42.7206L122.565 46.0134L132.443 42.7206L157.688 52.5989V95.4052L132.443 105.649L122.565 101.991L111.955 105.649V114.064L86.71 124.309ZM100.247 51.5013V96.8686L115.248 93.5758V54.4283L100.247 51.5013ZM129.15 91.0148V57.3552L143.785 60.2821V87.722L129.15 91.0148Z" fill="white"/>
<path d="M114.883 130.531V108.579L122.2 105.652L129.152 108.213V112.604H143.054V126.507H129.152C129.152 127.726 129.005 130.458 128.42 131.629C127.834 132.8 126.712 133.336 126.225 133.458H117.078C115.907 133.458 115.127 131.507 114.883 130.531Z" fill="white"/>
</svg>
