<svg width="40" height="39" viewBox="0 0 40 39" fill="none" xmlns="http://www.w3.org/2000/svg">
<path fill-rule="evenodd" clip-rule="evenodd" d="M4.35247 3.85247C4.88961 3.31533 5.77642 2.96409 7.16438 3.00282C8.55671 3.04167 10.3074 3.47576 12.3204 4.33846C13.9278 5.02737 15.6558 5.96947 17.4397 7.14095C15.6955 8.51404 13.9522 10.06 12.2562 11.7561C10.56 13.4522 9.01405 15.1956 7.64094 16.9398C6.46946 15.1559 5.52736 13.4279 4.83845 11.8204C3.97576 9.80744 3.54167 8.05674 3.50282 6.66441C3.46409 5.27643 3.81533 4.38962 4.35247 3.85247ZM13.5021 1.58103C15.5655 2.46532 17.7645 3.70419 20 5.24891C22.2354 3.7042 24.4345 2.46534 26.4978 1.58105C28.7178 0.629601 30.8541 0.0569634 32.7518 0.00400706C34.654 -0.0490709 36.4604 0.422794 37.7688 1.73118C39.0771 3.03957 39.549 4.84598 39.4959 6.74811C39.443 8.64588 38.8703 10.7821 37.9189 13.0022C37.0346 15.0655 35.7957 17.2646 34.251 19.5001C35.7957 21.7354 37.0345 23.9344 37.9187 25.9977C38.8702 28.2178 39.4428 30.354 39.4957 32.2518C39.5488 34.1539 39.077 35.9603 37.7686 37.2687C36.4602 38.5771 34.6538 39.049 32.7517 38.9959C30.8539 38.9429 28.7176 38.3703 26.4976 37.4189C24.4343 36.5346 22.2353 35.2958 20 33.7511C17.7646 35.2958 15.5656 36.5346 13.5023 37.4189C11.2823 38.3703 9.14601 38.943 7.24825 38.9959C5.34612 39.049 3.53971 38.5771 2.23133 37.2687C0.922951 35.9604 0.451089 34.1539 0.504167 32.2518C0.557122 30.354 1.12976 28.2178 2.0812 25.9977C2.96546 23.9345 4.20427 21.7354 5.74891 19.5001C4.20419 17.2646 2.96532 15.0655 2.08102 13.0022C1.12958 10.7821 0.556942 8.64586 0.503986 6.74809C0.450908 4.84596 0.92277 3.03954 2.23115 1.73116C3.53953 0.422773 5.34594 -0.0490922 7.24806 0.00398572C9.14583 0.0569419 11.2821 0.62958 13.5021 1.58103ZM14.3775 13.8774C16.2315 12.0233 18.1291 10.3734 20 8.95343C21.8709 10.3734 23.7684 12.0233 25.6224 13.8774C27.4765 15.7315 29.1265 17.6291 30.5465 19.5001C29.1265 21.371 27.4766 23.2685 25.6226 25.1226C23.7685 26.9767 21.8709 28.6266 20 30.0466C18.129 28.6266 16.2314 26.9767 14.3773 25.1225C12.5233 23.2685 10.8734 21.371 9.45342 19.5001C10.8734 17.6291 12.5234 15.7315 14.3775 13.8774ZM27.7437 11.756C29.4399 13.4522 30.9859 15.1956 32.359 16.9398C33.5305 15.1559 34.4725 13.4279 35.1615 11.8204C36.0242 9.80746 36.4582 8.05676 36.4971 6.66443C36.5358 5.27646 36.1846 4.38964 35.6474 3.8525C35.1103 3.31535 34.2235 2.96411 32.8355 3.00284C31.4432 3.04169 29.6925 3.47578 27.6796 4.33848C26.0721 5.02739 24.3441 5.96948 22.5602 7.14095C24.3044 8.51403 26.0477 10.06 27.7437 11.756ZM27.7439 27.2439C29.44 25.5478 30.9859 23.8045 32.359 22.0604C33.5304 23.8442 34.4724 25.5721 35.1613 27.1795C36.024 29.1924 36.4581 30.9431 36.4969 32.3355C36.5356 33.7234 36.1844 34.6103 35.6473 35.1474C35.1101 35.6846 34.2233 36.0358 32.8353 35.9971C31.443 35.9582 29.6923 35.5241 27.6794 34.6614C26.072 33.9725 24.344 33.0305 22.5602 31.8591C24.3045 30.486 26.0478 28.94 27.7439 27.2439ZM12.256 27.2439C13.9521 28.94 15.6955 30.486 17.4397 31.8591C15.6559 33.0305 13.9279 33.9726 12.3205 34.6614C10.3076 35.5241 8.55689 35.9582 7.16457 35.9971C5.7766 36.0358 4.88979 35.6846 4.35266 35.1474C3.81551 34.6103 3.46427 33.7235 3.503 32.3355C3.54185 30.9432 3.97594 29.1925 4.83864 27.1795C5.52751 25.5721 6.46956 23.8442 7.64096 22.0604C9.01402 23.8045 10.5599 25.5478 12.256 27.2439ZM20 23.5C22.2091 23.5 24 21.7091 24 19.5C24 17.2909 22.2091 15.5 20 15.5C17.7909 15.5 16 17.2909 16 19.5C16 21.7091 17.7909 23.5 20 23.5Z" fill="white"/>
</svg>
