<svg width="37" height="40" viewBox="0 0 37 40" fill="none" xmlns="http://www.w3.org/2000/svg">
<path fill-rule="evenodd" clip-rule="evenodd" d="M14.5 0C12.2909 0 10.5 1.79086 10.5 4C10.5 6.20914 12.2909 8 14.5 8H22.5C24.7091 8 26.5 6.20914 26.5 4C26.5 1.79086 24.7091 0 22.5 0H14.5ZM7.5 4.00015H4.5C2.29086 4.00015 0.5 5.79101 0.5 8.00015V36.0002C0.5 38.2093 2.29086 40.0002 4.5 40.0002H32.5C34.7091 40.0002 36.5 38.2093 36.5 36.0002V8.00015C36.5 5.79101 34.7091 4.00015 32.5 4.00015H29.5C29.5 7.86614 26.366 11.0002 22.5 11.0002H14.5C10.634 11.0002 7.5 7.86614 7.5 4.00015ZM9.75 16C9.75 15.5858 10.0858 15.25 10.5 15.25H26.5C26.9142 15.25 27.25 15.5858 27.25 16C27.25 16.4142 26.9142 16.75 26.5 16.75H10.5C10.0858 16.75 9.75 16.4142 9.75 16ZM10.5 23.25C10.0858 23.25 9.75 23.5858 9.75 24C9.75 24.4142 10.0858 24.75 10.5 24.75H26.5C26.9142 24.75 27.25 24.4142 27.25 24C27.25 23.5858 26.9142 23.25 26.5 23.25H10.5ZM9.75 32C9.75 31.5858 10.0858 31.25 10.5 31.25H18.5C18.9142 31.25 19.25 31.5858 19.25 32C19.25 32.4142 18.9142 32.75 18.5 32.75H10.5C10.0858 32.75 9.75 32.4142 9.75 32Z" fill="white"/>
</svg>
