<svg width="41" height="40" viewBox="0 0 41 40" fill="none" xmlns="http://www.w3.org/2000/svg">
<path fill-rule="evenodd" clip-rule="evenodd" d="M25.1804 11.242C24.1847 10.7098 23.1089 10.3531 22 10.1836V0.0546927C24.7687 0.262926 27.4696 1.04592 29.928 2.35994C32.8286 3.91038 35.3022 6.15224 37.1294 8.88696C38.9567 11.6217 40.0814 14.7648 40.4037 18.038C40.4188 18.1914 40.4322 18.3449 40.4437 18.4984H30.3148C30.0956 17.0638 29.5641 15.6925 28.7555 14.4823C27.8484 13.1246 26.6204 12.0117 25.1804 11.242ZM9.3886 3.36898C12.2604 1.45011 15.5727 0.312437 19 0.0546875V10.1836C17.5693 10.4022 16.1974 10.9321 14.9839 11.7429C13.3511 12.8339 12.0785 14.3846 11.3271 16.1988C10.5756 18.013 10.3789 20.0094 10.762 21.9354C11.0468 23.3668 11.6422 24.7116 12.4993 25.8778L5.33708 33.0401C3.09583 30.4343 1.55812 27.2877 0.884303 23.9002C0.112599 20.0206 0.508666 15.9992 2.02242 12.3447C3.53617 8.69018 6.09962 5.5666 9.3886 3.36898ZM7.45842 35.1614C9.56347 36.9719 12.0269 38.328 14.6944 39.1372C17.8418 40.0919 21.176 40.2557 24.4019 39.6141C27.5977 38.9784 30.5893 37.5716 33.1168 35.5167L24.1027 29.2504C23.5646 29.46 23.0074 29.6229 22.4371 29.7363C20.8356 30.0549 19.1804 29.9736 17.6179 29.4996C16.5375 29.1719 15.5246 28.6634 14.6206 27.9991L7.45842 35.1614ZM29.673 23.7979C29.9798 23.0572 30.1946 22.285 30.3148 21.4984H40.4437C40.2851 23.6071 39.7925 25.6848 38.9776 27.652C38.0998 29.7712 36.867 31.7166 35.3389 33.4077L26.931 27.5629C28.13 26.5436 29.0702 25.2533 29.673 23.7979Z" fill="white"/>
</svg>
