<svg width="56" height="56" viewBox="0 0 56 56" fill="none" xmlns="http://www.w3.org/2000/svg">
<g filter="url(#filter0_d_35125_3007)">
<path fill-rule="evenodd" clip-rule="evenodd" d="M39.2668 3.4255C37.7967 4.30143 37.2931 6.24142 38.1418 7.75858L43.2643 16.9154C44.113 18.4326 45.9927 18.9524 47.4628 18.0765C48.9328 17.2006 49.4365 15.2606 48.5877 13.7434L43.4652 4.58655C42.6165 3.06939 40.7368 2.54957 39.2668 3.4255ZM35.1171 8.34033L19.8851 17.4164C17.9251 18.5843 17.2535 21.171 18.3852 23.1938L18.6774 23.7162C18.6654 23.7229 18.6535 23.7297 18.6416 23.7368L11.0935 28.2344L10.3094 26.8327C9.9049 26.1097 8.99093 25.8515 8.26795 26.256C7.54496 26.6604 7.28673 27.5744 7.69118 28.2974L10.7647 33.7915C11.1691 34.5145 12.0831 34.7727 12.8061 34.3682C13.5291 33.9638 13.7873 33.0498 13.3829 32.3268L12.5587 30.8536L20.1423 26.3348L20.4342 26.8566C21.5658 28.8795 24.0721 29.5726 26.0321 28.4047L28.7727 26.7717L20.8003 42.3157C20.4222 43.0528 20.7133 43.9569 21.4504 44.3349C22.1875 44.713 23.0916 44.4219 23.4696 43.6848L32.38 26.3122L41.2903 43.6848C41.6683 44.4219 42.5724 44.713 43.3095 44.3349C44.0466 43.9569 44.3377 43.0528 43.9596 42.3157L34.2984 23.4791L41.2879 19.3144C41.0499 19.0281 40.8347 18.7161 40.6467 18.38L35.5242 9.22316C35.3637 8.93628 35.2282 8.64108 35.1171 8.34033Z" fill="white"/>
</g>
<defs>
<filter id="filter0_d_35125_3007" x="0.5" y="0" width="55.5" height="55.5" filterUnits="userSpaceOnUse" color-interpolation-filters="sRGB">
<feFlood flood-opacity="0" result="BackgroundImageFix"/>
<feColorMatrix in="SourceAlpha" type="matrix" values="0 0 0 0 0 0 0 0 0 0 0 0 0 0 0 0 0 0 127 0" result="hardAlpha"/>
<feOffset dy="4"/>
<feGaussianBlur stdDeviation="3.5"/>
<feComposite in2="hardAlpha" operator="out"/>
<feColorMatrix type="matrix" values="0 0 0 0 0.388451 0 0 0 0 0.459239 0 0 0 0 0.484722 0 0 0 0.8 0"/>
<feBlend mode="normal" in2="BackgroundImageFix" result="effect1_dropShadow_35125_3007"/>
<feBlend mode="normal" in="SourceGraphic" in2="effect1_dropShadow_35125_3007" result="shape"/>
</filter>
</defs>
</svg>
