<svg width="41" height="41" viewBox="0 0 41 41" fill="none" xmlns="http://www.w3.org/2000/svg">
<g clip-path="url(#clip0_35125_2998)">
<g filter="url(#filter0_d_35125_2998)">
<path d="M16.4016 10.2484C16.4016 9.16105 16.8335 8.1182 17.6024 7.3493C18.3713 6.5804 19.4142 6.14844 20.5016 6.14844C21.5889 6.14844 22.6318 6.5804 23.4007 7.3493C24.1696 8.1182 24.6016 9.16105 24.6016 10.2484V11.8679C30.5302 13.6309 34.8516 19.1229 34.8516 25.6234C34.8516 25.8953 34.7436 26.156 34.5513 26.3482C34.3591 26.5404 34.0984 26.6484 33.8266 26.6484H7.17656C6.90472 26.6484 6.644 26.5404 6.45178 26.3482C6.25955 26.156 6.15156 25.8953 6.15156 25.6234C6.15176 22.5328 7.14937 19.5247 8.99608 17.0464C10.8428 14.5681 13.44 12.7519 16.4016 11.8679V10.2484ZM21.5266 17.4234C22.3917 17.4234 23.2486 17.4316 24.126 17.7473C24.9726 18.0507 25.9095 18.6719 26.8238 20.0433C26.8985 20.1553 26.9945 20.2515 27.1064 20.3264C27.2183 20.4013 27.3438 20.4534 27.4758 20.4797C27.6078 20.5061 27.7437 20.5062 27.8758 20.48C28.0078 20.4539 28.1334 20.402 28.2454 20.3273C28.3574 20.2526 28.4536 20.1565 28.5285 20.0446C28.6034 19.9328 28.6555 19.8072 28.6818 19.6752C28.7082 19.5432 28.7083 19.4073 28.6821 19.2752C28.656 19.1432 28.6041 19.0176 28.5294 18.9056C27.3916 17.2 26.1104 16.2816 24.8189 15.8183C23.5868 15.3734 22.4081 15.3734 21.5676 15.3734H21.5266C21.2547 15.3734 20.994 15.4814 20.8018 15.6737C20.6096 15.8659 20.5016 16.1266 20.5016 16.3984C20.5016 16.6703 20.6096 16.931 20.8018 17.1232C20.994 17.3154 21.2547 17.4234 21.5266 17.4234ZM7.17656 28.6984C6.36102 28.6984 5.57888 29.0224 5.00221 29.5991C4.42553 30.1758 4.10156 30.9579 4.10156 31.7734C4.10156 32.589 4.42553 33.3711 5.00221 33.9478C5.57888 34.5245 6.36102 34.8484 7.17656 34.8484H33.8266C34.6421 34.8484 35.4242 34.5245 36.0009 33.9478C36.5776 33.3711 36.9016 32.589 36.9016 31.7734C36.9016 30.9579 36.5776 30.1758 36.0009 29.5991C35.4242 29.0224 34.6421 28.6984 33.8266 28.6984H7.17656Z" fill="white"/>
</g>
</g>
<defs>
<filter id="filter0_d_35125_2998" x="-2.89844" y="3.14844" width="46.7969" height="42.7031" filterUnits="userSpaceOnUse" color-interpolation-filters="sRGB">
<feFlood flood-opacity="0" result="BackgroundImageFix"/>
<feColorMatrix in="SourceAlpha" type="matrix" values="0 0 0 0 0 0 0 0 0 0 0 0 0 0 0 0 0 0 127 0" result="hardAlpha"/>
<feOffset dy="4"/>
<feGaussianBlur stdDeviation="3.5"/>
<feComposite in2="hardAlpha" operator="out"/>
<feColorMatrix type="matrix" values="0 0 0 0 0.388235 0 0 0 0 0.458824 0 0 0 0 0.486275 0 0 0 0.25 0"/>
<feBlend mode="normal" in2="BackgroundImageFix" result="effect1_dropShadow_35125_2998"/>
<feBlend mode="normal" in="SourceGraphic" in2="effect1_dropShadow_35125_2998" result="shape"/>
</filter>
<clipPath id="clip0_35125_2998">
<rect width="41" height="41" fill="white"/>
</clipPath>
</defs>
</svg>
