<svg width="14" height="36" viewBox="0 0 14 48" fill="none" xmlns="http://www.w3.org/2000/svg">
<path d="M13.2045 6.12453C13.2044 5.00109 12.8567 3.90073 12.2015 2.95125C11.5464 2.00177 10.6109 1.24214 9.50365 0.760599C8.39637 0.279054 7.16277 0.0953548 5.94614 0.230837C4.72951 0.366319 3.57978 0.815423 2.63049 1.52598C1.68119 2.23655 0.971296 3.1794 0.58325 4.24505C0.195203 5.31069 0.144933 6.45538 0.438279 7.54617C0.731625 8.63695 1.35655 9.62907 2.24046 10.4073C3.12438 11.1855 4.23101 11.7179 5.43182 11.9425V32.9591C5.43197 33.2746 5.5005 33.5869 5.63342 33.8779L6.44875 35.6591C6.47607 35.705 6.51635 35.7432 6.56536 35.7699C6.61436 35.7965 6.67029 35.8106 6.72727 35.8106C6.78425 35.8106 6.84018 35.7965 6.88919 35.7699C6.9382 35.7432 6.97847 35.705 7.0058 35.6591L7.82112 33.8779C7.95405 33.5869 8.02258 33.2746 8.02273 32.9591V11.9425C9.48472 11.6671 10.7984 10.9381 11.7423 9.87825C12.6863 8.81844 13.2027 7.4927 13.2045 6.12453ZM8.67045 6.12453C8.28613 6.12453 7.91044 6.02007 7.59088 5.82434C7.27133 5.62861 7.02226 5.35042 6.87519 5.02494C6.72811 4.69946 6.68963 4.34131 6.76461 3.99578C6.83959 3.65025 7.02466 3.33286 7.29642 3.08375C7.56818 2.83464 7.91442 2.66499 8.29136 2.59626C8.6683 2.52753 9.05901 2.5628 9.41408 2.69762C9.76915 2.83244 10.0726 3.06075 10.2861 3.35367C10.4997 3.6466 10.6136 3.99099 10.6136 4.34328C10.6136 4.8157 10.4089 5.26877 10.0445 5.60282C9.68007 5.93687 9.18582 6.12453 8.67045 6.12453Z" fill="black"/>
</svg>
